<svg width="190" height="190" viewBox="0 0 190 190" fill="none" xmlns="http://www.w3.org/2000/svg">
<rect width="190" height="190" fill="#00AB37"/>
<path d="M54.9205 161.273V170H53.8977L49.1421 163.148H49.0568V170H48V161.273H49.0227L53.7955 168.142H53.8807V161.273H54.9205ZM61.0238 167.324V163.455H62.0295V170H61.0238V168.892H60.9556C60.8022 169.224 60.5636 169.507 60.2397 169.74C59.9159 169.97 59.5068 170.085 59.0124 170.085C58.6034 170.085 58.2397 169.996 57.9215 169.817C57.6034 169.635 57.3534 169.362 57.1715 168.999C56.9897 168.632 56.8988 168.17 56.8988 167.614V163.455H57.9045V167.545C57.9045 168.023 58.038 168.403 58.3051 168.688C58.5749 168.972 58.9187 169.114 59.3363 169.114C59.5863 169.114 59.8406 169.05 60.0991 168.922C60.3605 168.794 60.5792 168.598 60.7553 168.334C60.9343 168.07 61.0238 167.733 61.0238 167.324ZM59.0124 162.568L60.0522 160.591H61.2284L59.8988 162.568H59.0124ZM63.8715 170V163.455H64.8431V164.477H64.9283C65.0646 164.128 65.2848 163.857 65.5888 163.663C65.8928 163.467 66.2578 163.369 66.684 163.369C67.1158 163.369 67.4752 163.467 67.7621 163.663C68.0519 163.857 68.2777 164.128 68.4396 164.477H68.5078C68.6754 164.139 68.9269 163.871 69.2621 163.672C69.5973 163.47 69.9993 163.369 70.4681 163.369C71.0533 163.369 71.532 163.553 71.9041 163.919C72.2763 164.283 72.4624 164.849 72.4624 165.619V170H71.4567V165.619C71.4567 165.136 71.3246 164.791 71.0604 164.584C70.7962 164.376 70.4851 164.273 70.1271 164.273C69.6669 164.273 69.3104 164.412 69.0575 164.69C68.8047 164.966 68.6783 165.315 68.6783 165.739V170H67.6556V165.517C67.6556 165.145 67.5348 164.845 67.2933 164.618C67.0519 164.388 66.7408 164.273 66.3601 164.273C66.0987 164.273 65.8544 164.342 65.6271 164.482C65.4027 164.621 65.2209 164.814 65.0817 165.061C64.9453 165.305 64.8771 165.588 64.8771 165.909V170H63.8715ZM77.0455 170.136C76.4148 170.136 75.8708 169.997 75.4134 169.719C74.9588 169.438 74.608 169.045 74.3608 168.543C74.1165 168.037 73.9943 167.449 73.9943 166.778C73.9943 166.108 74.1165 165.517 74.3608 165.006C74.608 164.491 74.9517 164.091 75.3921 163.804C75.8352 163.514 76.3523 163.369 76.9432 163.369C77.2841 163.369 77.6208 163.426 77.9531 163.54C78.2855 163.653 78.5881 163.838 78.8608 164.094C79.1335 164.347 79.3509 164.682 79.5128 165.099C79.6747 165.517 79.7557 166.031 79.7557 166.642V167.068H74.7102V166.199H78.733C78.733 165.83 78.6591 165.5 78.5114 165.21C78.3665 164.92 78.1591 164.692 77.8892 164.524C77.6222 164.357 77.3068 164.273 76.9432 164.273C76.5426 164.273 76.196 164.372 75.9034 164.571C75.6137 164.767 75.3906 165.023 75.2344 165.338C75.0781 165.653 75 165.991 75 166.352V166.932C75 167.426 75.0852 167.845 75.2557 168.189C75.429 168.53 75.6691 168.79 75.9759 168.969C76.2827 169.145 76.6392 169.233 77.0455 169.233C77.3097 169.233 77.5483 169.196 77.7614 169.122C77.9773 169.045 78.1634 168.932 78.3196 168.781C78.4759 168.628 78.5966 168.437 78.6818 168.21L79.6534 168.483C79.5512 168.812 79.3793 169.102 79.1378 169.352C78.8963 169.599 78.598 169.793 78.2429 169.932C77.8878 170.068 77.4887 170.136 77.0455 170.136ZM81.2855 170V163.455H82.2571V164.443H82.3253C82.4446 164.119 82.6605 163.857 82.973 163.655C83.2855 163.453 83.6378 163.352 84.0298 163.352C84.1037 163.352 84.196 163.354 84.3068 163.357C84.4176 163.359 84.5014 163.364 84.5583 163.369V164.392C84.5242 164.384 84.446 164.371 84.3239 164.354C84.2046 164.334 84.0781 164.324 83.9446 164.324C83.6264 164.324 83.3423 164.391 83.0923 164.524C82.8452 164.655 82.6492 164.837 82.5043 165.07C82.3622 165.3 82.2912 165.562 82.2912 165.858V170H81.2855ZM88.2102 170.136C87.6193 170.136 87.1009 169.996 86.6548 169.714C86.2117 169.433 85.8651 169.04 85.6151 168.534C85.3679 168.028 85.2443 167.437 85.2443 166.761C85.2443 166.08 85.3679 165.484 85.6151 164.976C85.8651 164.467 86.2117 164.072 86.6548 163.791C87.1009 163.51 87.6193 163.369 88.2102 163.369C88.8012 163.369 89.3182 163.51 89.7614 163.791C90.2074 164.072 90.554 164.467 90.8012 164.976C91.0512 165.484 91.1762 166.08 91.1762 166.761C91.1762 167.437 91.0512 168.028 90.8012 168.534C90.554 169.04 90.2074 169.433 89.7614 169.714C89.3182 169.996 88.8012 170.136 88.2102 170.136ZM88.2102 169.233C88.6591 169.233 89.0284 169.118 89.3182 168.888C89.608 168.658 89.8225 168.355 89.9617 167.98C90.1009 167.605 90.1705 167.199 90.1705 166.761C90.1705 166.324 90.1009 165.916 89.9617 165.538C89.8225 165.161 89.608 164.855 89.3182 164.622C89.0284 164.389 88.6591 164.273 88.2102 164.273C87.7614 164.273 87.3921 164.389 87.1023 164.622C86.8125 164.855 86.598 165.161 86.4588 165.538C86.3196 165.916 86.25 166.324 86.25 166.761C86.25 167.199 86.3196 167.605 86.4588 167.98C86.598 168.355 86.8125 168.658 87.1023 168.888C87.3921 169.118 87.7614 169.233 88.2102 169.233ZM98.5579 170.136C98.0124 170.136 97.5309 169.999 97.1133 169.723C96.6957 169.445 96.369 169.053 96.1332 168.547C95.8974 168.038 95.7795 167.438 95.7795 166.744C95.7795 166.057 95.8974 165.46 96.1332 164.955C96.369 164.449 96.6971 164.058 97.1176 163.783C97.538 163.507 98.0238 163.369 98.5749 163.369C99.0011 163.369 99.3377 163.44 99.5849 163.582C99.8349 163.722 100.025 163.881 100.156 164.06C100.289 164.236 100.393 164.381 100.467 164.494H100.552V161.273H101.558V170H100.586V168.994H100.467C100.393 169.114 100.288 169.264 100.152 169.446C100.015 169.625 99.8207 169.786 99.5678 169.928C99.315 170.067 98.9784 170.136 98.5579 170.136ZM98.6943 169.233C99.0977 169.233 99.4386 169.128 99.717 168.918C99.9954 168.705 100.207 168.411 100.352 168.036C100.497 167.658 100.569 167.222 100.569 166.727C100.569 166.239 100.498 165.811 100.356 165.445C100.214 165.075 100.004 164.788 99.7255 164.584C99.4471 164.376 99.1034 164.273 98.6943 164.273C98.2681 164.273 97.913 164.382 97.6289 164.601C97.3477 164.817 97.136 165.111 96.994 165.483C96.8548 165.852 96.7852 166.267 96.7852 166.727C96.7852 167.193 96.8562 167.616 96.9982 167.997C97.1431 168.375 97.3562 168.676 97.6374 168.901C97.9215 169.122 98.2738 169.233 98.6943 169.233ZM105.466 170.153C105.051 170.153 104.674 170.075 104.336 169.919C103.998 169.76 103.73 169.531 103.531 169.233C103.332 168.932 103.233 168.568 103.233 168.142C103.233 167.767 103.307 167.463 103.454 167.23C103.602 166.994 103.799 166.81 104.047 166.676C104.294 166.543 104.566 166.443 104.865 166.378C105.166 166.31 105.468 166.256 105.772 166.216C106.17 166.165 106.492 166.126 106.74 166.101C106.99 166.072 107.171 166.026 107.285 165.96C107.401 165.895 107.46 165.781 107.46 165.619V165.585C107.46 165.165 107.345 164.838 107.115 164.605C106.887 164.372 106.542 164.256 106.079 164.256C105.599 164.256 105.223 164.361 104.95 164.571C104.677 164.781 104.486 165.006 104.375 165.244L103.42 164.903C103.591 164.506 103.818 164.196 104.102 163.974C104.389 163.75 104.701 163.594 105.039 163.506C105.38 163.415 105.716 163.369 106.045 163.369C106.255 163.369 106.497 163.395 106.769 163.446C107.045 163.494 107.311 163.595 107.566 163.749C107.825 163.902 108.039 164.134 108.21 164.443C108.38 164.753 108.465 165.168 108.465 165.688V170H107.46V169.114H107.409C107.34 169.256 107.227 169.408 107.068 169.57C106.909 169.732 106.697 169.869 106.433 169.983C106.168 170.097 105.846 170.153 105.466 170.153ZM105.619 169.25C106.017 169.25 106.352 169.172 106.624 169.016C106.9 168.859 107.107 168.658 107.247 168.411C107.389 168.163 107.46 167.903 107.46 167.631V166.71C107.417 166.761 107.323 166.808 107.178 166.851C107.036 166.891 106.872 166.926 106.684 166.957C106.499 166.986 106.319 167.011 106.143 167.034C105.97 167.054 105.829 167.071 105.721 167.085C105.46 167.119 105.216 167.175 104.988 167.251C104.764 167.325 104.582 167.437 104.443 167.588C104.307 167.736 104.238 167.937 104.238 168.193C104.238 168.543 104.368 168.807 104.626 168.986C104.887 169.162 105.218 169.25 105.619 169.25ZM118.312 164.92L117.409 165.176C117.352 165.026 117.268 164.879 117.157 164.737C117.05 164.592 116.902 164.473 116.714 164.379C116.527 164.286 116.287 164.239 115.994 164.239C115.594 164.239 115.26 164.331 114.993 164.516C114.729 164.697 114.596 164.929 114.596 165.21C114.596 165.46 114.687 165.658 114.869 165.803C115.051 165.947 115.335 166.068 115.721 166.165L116.693 166.403C117.278 166.545 117.714 166.763 118.001 167.055C118.288 167.345 118.432 167.719 118.432 168.176C118.432 168.551 118.324 168.886 118.108 169.182C117.895 169.477 117.596 169.71 117.213 169.881C116.829 170.051 116.383 170.136 115.875 170.136C115.207 170.136 114.655 169.991 114.217 169.702C113.78 169.412 113.503 168.989 113.386 168.432L114.341 168.193C114.432 168.545 114.604 168.81 114.856 168.986C115.112 169.162 115.446 169.25 115.858 169.25C116.327 169.25 116.699 169.151 116.974 168.952C117.253 168.75 117.392 168.509 117.392 168.227C117.392 168 117.312 167.81 117.153 167.656C116.994 167.5 116.75 167.384 116.42 167.307L115.329 167.051C114.73 166.909 114.29 166.689 114.008 166.391C113.73 166.089 113.591 165.713 113.591 165.261C113.591 164.892 113.694 164.565 113.902 164.281C114.112 163.997 114.398 163.774 114.758 163.612C115.122 163.45 115.534 163.369 115.994 163.369C116.642 163.369 117.15 163.511 117.52 163.795C117.892 164.08 118.156 164.455 118.312 164.92ZM122.605 170.136C122.014 170.136 121.495 169.996 121.049 169.714C120.606 169.433 120.259 169.04 120.009 168.534C119.762 168.028 119.639 167.437 119.639 166.761C119.639 166.08 119.762 165.484 120.009 164.976C120.259 164.467 120.606 164.072 121.049 163.791C121.495 163.51 122.014 163.369 122.605 163.369C123.195 163.369 123.713 163.51 124.156 163.791C124.602 164.072 124.948 164.467 125.195 164.976C125.445 165.484 125.57 166.08 125.57 166.761C125.57 167.437 125.445 168.028 125.195 168.534C124.948 169.04 124.602 169.433 124.156 169.714C123.713 169.996 123.195 170.136 122.605 170.136ZM122.605 169.233C123.053 169.233 123.423 169.118 123.713 168.888C124.002 168.658 124.217 168.355 124.356 167.98C124.495 167.605 124.565 167.199 124.565 166.761C124.565 166.324 124.495 165.916 124.356 165.538C124.217 165.161 124.002 164.855 123.713 164.622C123.423 164.389 123.053 164.273 122.605 164.273C122.156 164.273 121.786 164.389 121.497 164.622C121.207 164.855 120.992 165.161 120.853 165.538C120.714 165.916 120.644 166.324 120.644 166.761C120.644 167.199 120.714 167.605 120.853 167.98C120.992 168.355 121.207 168.658 121.497 168.888C121.786 169.118 122.156 169.233 122.605 169.233ZM127.106 170V163.455H128.077V164.443H128.145C128.265 164.119 128.481 163.857 128.793 163.655C129.106 163.453 129.458 163.352 129.85 163.352C129.924 163.352 130.016 163.354 130.127 163.357C130.238 163.359 130.322 163.364 130.378 163.369V164.392C130.344 164.384 130.266 164.371 130.144 164.354C130.025 164.334 129.898 164.324 129.765 164.324C129.447 164.324 129.162 164.391 128.912 164.524C128.665 164.655 128.469 164.837 128.324 165.07C128.182 165.3 128.111 165.562 128.111 165.858V170H127.106ZM134.827 163.455V164.307H131.435V163.455H134.827ZM132.424 161.886H133.43V168.125C133.43 168.409 133.471 168.622 133.553 168.764C133.638 168.903 133.746 168.997 133.877 169.045C134.01 169.091 134.151 169.114 134.299 169.114C134.41 169.114 134.501 169.108 134.572 169.097C134.643 169.082 134.699 169.071 134.742 169.062L134.947 169.966C134.878 169.991 134.783 170.017 134.661 170.043C134.539 170.071 134.384 170.085 134.197 170.085C133.912 170.085 133.634 170.024 133.361 169.902C133.091 169.78 132.867 169.594 132.688 169.344C132.512 169.094 132.424 168.778 132.424 168.398V161.886ZM139.014 170.136C138.383 170.136 137.839 169.997 137.382 169.719C136.927 169.438 136.577 169.045 136.329 168.543C136.085 168.037 135.963 167.449 135.963 166.778C135.963 166.108 136.085 165.517 136.329 165.006C136.577 164.491 136.92 164.091 137.361 163.804C137.804 163.514 138.321 163.369 138.912 163.369C139.253 163.369 139.589 163.426 139.922 163.54C140.254 163.653 140.557 163.838 140.829 164.094C141.102 164.347 141.319 164.682 141.481 165.099C141.643 165.517 141.724 166.031 141.724 166.642V167.068H136.679V166.199H140.702C140.702 165.83 140.628 165.5 140.48 165.21C140.335 164.92 140.128 164.692 139.858 164.524C139.591 164.357 139.275 164.273 138.912 164.273C138.511 164.273 138.165 164.372 137.872 164.571C137.582 164.767 137.359 165.023 137.203 165.338C137.047 165.653 136.969 165.991 136.969 166.352V166.932C136.969 167.426 137.054 167.845 137.224 168.189C137.398 168.53 137.638 168.79 137.944 168.969C138.251 169.145 138.608 169.233 139.014 169.233C139.278 169.233 139.517 169.196 139.73 169.122C139.946 169.045 140.132 168.932 140.288 168.781C140.444 168.628 140.565 168.437 140.65 168.21L141.622 168.483C141.52 168.812 141.348 169.102 141.106 169.352C140.865 169.599 140.567 169.793 140.211 169.932C139.856 170.068 139.457 170.136 139.014 170.136Z" fill="white"/>
<path fill-rule="evenodd" clip-rule="evenodd" d="M117.72 61.0358C106.2 58.8091 97.4006 56.6891 95.4673 56.2091L95.454 56.0625L95.4406 56.0225C97.4673 55.5958 107.414 53.7025 118.2 54.6891C137.667 56.4758 135.414 30.2358 119.907 34.7958C125.547 20.0091 103.734 14.0758 99.9873 33.4491C97.7473 45.0491 95.6006 53.8758 95.1473 55.7292C95.1073 55.7158 95.0673 55.7158 95.0273 55.7158L94.974 55.7292C94.5606 53.7158 92.654 43.7692 93.6406 32.9692C95.4273 13.5025 69.1873 15.7558 73.7473 31.2624C58.9473 25.6224 53.0273 47.4224 72.4006 51.1691C83.9873 53.4224 92.814 55.5558 94.6806 56.0091C94.6673 56.0491 94.654 56.1025 94.6673 56.1425V56.1958C92.614 56.6225 82.6806 58.5158 71.9073 57.5291C52.454 55.7425 54.694 81.9824 70.2006 77.4224C64.5606 92.2091 86.374 98.1291 90.1206 78.7558C92.1073 68.5558 94.0006 60.4891 94.734 57.4358C95.0406 63.4491 94.4273 69.4758 93.1873 75.3424C91.8673 81.6491 89.8806 87.8091 87.8006 93.9425C85.6273 100.036 83.6273 106.423 82.8006 113.009C81.9073 119.596 82.054 126.382 83.3473 132.969V132.982L83.3606 133.049C83.6006 134.076 84.6273 134.716 85.654 134.476C86.694 134.223 87.334 133.196 87.094 132.169C85.654 126.036 85.254 119.676 85.8673 113.369C86.1606 110.209 86.694 107.063 87.4273 103.956C88.1473 100.836 89.094 97.7824 90.0273 94.6491C91.8806 88.4091 93.6406 82.1025 94.7206 75.6358C95.6006 70.4625 96.0006 65.1958 95.7606 59.9558C96.4006 64.2225 97.174 71.5158 96.4673 79.2491C94.6806 98.7024 120.934 96.4625 116.374 80.9558C131.16 86.5958 137.094 64.7825 117.72 61.0358Z" fill="white"/>
</svg>
